<svg version="1" xmlns="http://www.w3.org/2000/svg" width="486.667" height="486.667" viewBox="0 0 365.000000 365.000000"><path d="M57.3 2.6c-24.2 5.3-44.4 23.6-53 47.9l-2.8 8-.3 121C.9 316.2.5 308 8.8 325c3.8 7.7 6.1 11 12.7 17.6C34.2 355.4 46.7 361.7 64 364c6 .8 43.2 1 124.5.8l116-.3 7.5-2.3c24.9-7.7 42.5-25.3 50.2-50.4l2.2-7.3.4-116c.2-80.4 0-118.6-.8-124.4-3.7-28-22.4-50.7-49.5-59.9l-8-2.7L185 1.3C85 1.2 62.4 1.4 57.3 2.6zm108 175.1c5.9 35.7 10.9 66.6 11.3 68.9.5 3.4.2 4.5-1.7 6.8l-2.4 2.7-42.2-.3-42.2-.3 6.7-12.2 6.7-12.3h21.3c11.6 0 21.2-.3 21.2-.8.1-2.2-12.5-80.2-13-80.2-.3 0-13.5 23.9-29.5 53l-29 53H57.3c-8.4 0-15.3-.2-15.3-.5S59.2 223 80.2 184l38.2-71h36.3l10.6 64.7zm137.5-63.2c16.8 4 24.2 13.5 24.2 30.9-.1 24.5-12.5 43.6-35 53.9-3.6 1.6-6.7 3.1-6.9 3.3-.2.2 4.9 12 11.3 26.2S308 255 308 255.4c0 .3-6.6.5-14.7.4l-14.7-.3-14.6-34c-8-18.7-14.9-34.8-15.3-35.7-.9-2.5 3.9-4.8 10-4.8 15.7-.1 30.2-7.1 35.4-17.2 5-9.7 4.3-17.8-1.8-22.5l-3.6-2.8-22.9-.3c-12.5-.2-22.8-.1-22.8.3 0 .9-24 113.7-24.6 115.7-.5 1.6-2.1 1.8-15 1.8-7.9 0-14.4-.3-14.4-.6 0-.4 6.8-32.3 15-70.9 8.3-38.6 15-70.5 15-70.9 0-.3 17.4-.6 38.8-.6 30.6 0 40 .3 45 1.5z"/></svg>